<svg width="200" height="200" viewBox="0 0 200 200" fill="none" xmlns="http://www.w3.org/2000/svg">
<path d="M100 12C96.381 12.0021 92.8696 13.231 90.0391 15.4861C87.2086 17.7412 85.2263 20.8893 84.4157 24.4163C83.6051 27.9433 84.0142 31.641 85.5761 34.9056C87.1381 38.1702 89.7606 40.8088 93.0156 42.3906C78.6931 55.6877 44 90.388 44 116C44 132.71 55.7162 147.404 71.0156 156H68C59.16 156 52 163.16 52 172C52 180.84 59.16 188 68 188H132C140.84 188 148 180.84 148 172C148 163.16 140.84 156 132 156H128.984C144.284 147.404 156 132.71 156 116C156 90.3808 121.299 55.6632 106.984 42.375C110.231 40.7885 112.844 38.1499 114.4 34.8887C115.956 31.6275 116.362 27.9358 115.552 24.4145C114.742 20.8932 112.765 17.7496 109.941 15.4954C107.117 13.2413 103.613 12.0093 100 12Z" fill="black" style="fill:black;fill:black;fill-opacity:1;"/>
</svg>
