<svg width="200" height="200" viewBox="0 0 200 200" fill="none" xmlns="http://www.w3.org/2000/svg">
<path d="M99.9298 24C85.7546 24.0344 71.9919 28.7739 60.8012 37.4749C49.6106 46.1758 41.6252 58.3458 38.0981 72.0752C34.571 85.8047 35.7017 100.317 41.313 113.334C46.9242 126.351 56.6983 137.138 69.1017 144H67.9298C59.0898 144 51.9298 151.16 51.9298 160C51.9298 168.84 59.0898 176 67.9298 176H131.93C140.77 176 147.93 168.84 147.93 160C147.93 151.16 140.77 144 131.93 144H130.899C143.312 137.132 153.092 126.333 158.701 113.302C164.31 100.27 165.43 85.7445 161.884 72.0073C158.339 58.2702 150.33 46.1004 139.116 37.4105C127.901 28.7206 114.117 24.0033 99.9298 24Z" fill="black" style="fill:black;fill:black;fill-opacity:1;"/>
</svg>
