<svg width="200" height="200" viewBox="0 0 200 200" fill="none" xmlns="http://www.w3.org/2000/svg">
<path d="M100 16C96.986 16.0046 94.0345 16.8604 91.4856 18.4689C88.9367 20.0774 86.8939 22.3732 85.5925 25.0918C84.2912 27.8104 83.7842 30.8413 84.13 33.8354C84.4757 36.8296 85.6602 39.6652 87.5469 42.0156C81.0722 44.1456 75.2492 47.8947 70.6305 52.9072C66.0118 57.9197 62.7505 64.0293 61.1562 70.6562C53.4783 73.403 47.3171 76.6829 44 80L65.6719 152.234C57.9481 153.371 52 159.959 52 168C52 176.84 59.16 184 68 184H132C140.84 184 148 176.84 148 168C148 159.959 142.052 153.371 134.328 152.234L156 80C152.69 76.6895 146.547 73.4155 138.891 70.6719C137.293 64.0414 134.028 57.9294 129.403 52.9166C124.779 47.9038 118.949 44.1567 112.469 42.0312C114.361 39.68 115.55 36.8414 115.897 33.8434C116.245 30.8454 115.738 27.8101 114.434 25.0881C113.13 22.3661 111.083 20.0684 108.529 18.4603C105.975 16.8522 103.018 15.9993 100 16Z" fill="black" style="fill:black;fill:black;fill-opacity:1;"/>
</svg>
